<?xml version="1.0" encoding="UTF-8"?>
<svg id="Lager_1" data-name="Lager 1" xmlns="http://www.w3.org/2000/svg" viewBox="0 0 577.44 693.35">
  <defs>
    <style>
      .cls-1 {
        fill: #fff;
        stroke-width: 0px;
      }
    </style>
  </defs>
  <path class="cls-1" d="m215.71,60h0c-55.12,229.5,76.65,462.53,301.72,533.6h0c-47.66,26.95-99.48,39.75-150.58,39.75-106.9,0-210.71-56-267.08-155.69C16.46,330.31,68.36,143.32,215.71,60m0-60c-10.14,0-20.32,2.57-29.53,7.77-43.05,24.34-80.06,56.41-110.01,95.32-28.91,37.56-50.02,79.84-62.74,125.68C.71,274.61-3,321.73,2.41,368.81c5.61,48.78,20.79,95.34,45.13,138.38,32.54,57.54,79.94,105.19,137.08,137.81,55.42,31.63,118.43,48.35,182.23,48.35,30.93,0,61.77-3.94,91.66-11.7,30.79-7.99,60.55-20.05,88.45-35.83,20.79-11.76,32.63-34.73,30.14-58.48-2.49-23.76-18.83-43.77-41.61-50.96-194.15-61.3-308.99-264.4-261.45-462.37,5.58-23.22-3.15-47.55-22.22-61.92-10.63-8.01-23.35-12.09-36.12-12.09h0Z"/>
</svg>