<?xml version="1.0" encoding="UTF-8"?>
<svg id="Lager_2" data-name="Lager 2" xmlns="http://www.w3.org/2000/svg" viewBox="0 0 707.14 707.14">
  <defs>
    <style>
      .cls-1 {
        fill: #000;
        stroke-width: 0px;
      }

      .cls-2 {
        fill: none;
        stroke: #000;
        stroke-linecap: round;
        stroke-miterlimit: 10;
        stroke-width: 60px;
      }
    </style>
  </defs>
  <path class="cls-1" d="m353.57,217.91c74.93,0,135.66,60.74,135.66,135.66s-60.74,135.66-135.66,135.66-135.66-60.74-135.66-135.66,60.74-135.66,135.66-135.66m0-60c-26.39,0-52.02,5.18-76.18,15.4-23.31,9.86-44.23,23.96-62.18,41.91-17.95,17.95-32.05,38.87-41.91,62.18-10.22,24.16-15.4,49.79-15.4,76.18s5.18,52.02,15.4,76.18c9.86,23.31,23.96,44.23,41.91,62.18,17.95,17.95,38.87,32.05,62.18,41.91,24.16,10.22,49.79,15.4,76.18,15.4s52.02-5.18,76.18-15.4c23.31-9.86,44.23-23.96,62.18-41.91,17.95-17.95,32.05-38.87,41.91-62.18,10.22-24.16,15.4-49.79,15.4-76.18s-5.18-52.02-15.4-76.18c-9.86-23.31-23.96-44.23-41.91-62.18-17.95-17.95-38.87-32.05-62.18-41.91-24.16-10.22-49.79-15.4-76.18-15.4h0Z"/>
  <line class="cls-2" x1="354.55" y1="30" x2="354.55" y2="80.1"/>
  <line class="cls-2" x1="125.47" y1="124.08" x2="160.89" y2="159.51"/>
  <line class="cls-2" x1="125.47" y1="124.08" x2="160.89" y2="159.51"/>
  <line class="cls-2" x1="30" y1="352.59" x2="80.1" y2="352.59"/>
  <line class="cls-2" x1="124.08" y1="581.68" x2="159.51" y2="546.25"/>
  <line class="cls-2" x1="352.59" y1="677.14" x2="352.59" y2="627.04"/>
  <line class="cls-2" x1="581.68" y1="583.07" x2="546.25" y2="547.64"/>
  <line class="cls-2" x1="677.14" y1="354.55" x2="627.04" y2="354.55"/>
  <line class="cls-2" x1="583.07" y1="125.47" x2="547.64" y2="160.89"/>
</svg>